<svg width="144" height="170" viewBox="0 0 144 170" fill="none" xmlns="http://www.w3.org/2000/svg">
<path d="M72.5954 120.307C75.1849 118.662 78.515 118.259 81.4398 119.15C83.9289 119.889 85.8082 121.887 87.1048 124.059C86.5255 124.414 85.9391 124.76 85.3438 125.088C84.4794 123.415 83.2582 121.828 81.5151 121.013C79.7864 120.151 77.7098 120.215 75.9452 120.936C74.2506 121.62 72.859 122.975 72.0556 124.608C71.1052 126.632 71.1554 129.039 71.9157 131.114C72.6115 133.055 74.4604 134.192 76.1801 135.13C79.3704 136.755 82.9784 137.713 85.7006 140.143C87.2052 141.42 88.0444 143.348 88.222 145.29C88.4856 147.96 88.0731 150.762 86.7138 153.106C86.3874 153.612 86.122 154.153 85.7813 154.65C84.4148 156.363 82.5014 157.642 80.3854 158.216C77.3816 159.048 74.0318 158.775 71.2809 157.27C69.9413 156.401 68.5067 155.477 67.7804 153.996C67.5652 153.615 67.3267 153.249 67.099 152.88C67.7589 152.473 68.4135 152.059 69.0895 151.677C69.2868 152.003 69.484 152.331 69.701 152.649C70.4273 153.156 70.7501 154.044 71.3634 154.666C73.2427 156.472 76.008 157.383 78.5813 156.854C80.1845 156.551 81.6371 155.574 82.548 154.223C82.8045 153.567 83.2492 153 83.4698 152.329C84.1279 150.52 84.2552 148.529 83.9109 146.64C83.6832 145.349 83.1201 144.074 82.1284 143.192C80.5468 141.777 78.5921 140.889 76.6643 140.058C74.2667 139.011 71.8834 137.833 69.9055 136.095C69.3872 135.844 69.0572 135.349 68.7291 134.899C67.4218 133.008 67.1474 130.591 67.3967 128.356C67.6047 126.419 68.3059 124.516 69.5235 122.986C70.517 122.061 71.4208 121.017 72.5954 120.307Z" fill="#C2BBB6"/>
<path d="M4.84184 119.51C6.2675 119.503 7.69494 119.503 9.1206 119.514C9.96882 121.835 10.9139 124.121 11.7442 126.451L11.9253 126.365C12.8309 128.673 13.5966 131.028 14.5166 133.329C16.6362 138.859 18.7379 144.395 20.8791 149.915C22.5702 145.238 24.3365 140.586 26.0132 135.905C25.3462 133.745 24.3706 131.683 23.7358 129.509C22.5074 126.173 21.2306 122.853 20.0201 119.51C21.4727 119.501 22.9234 119.51 24.3742 119.507C25.755 123.329 27.2291 127.12 28.5077 130.978C30.8228 137.32 33.1523 143.658 35.4548 150.005C37.1549 145.392 38.9643 140.819 40.6535 136.202C40.7038 136.224 40.8024 136.269 40.8526 136.292C41.6542 133.898 42.6997 131.591 43.4529 129.183C44.6759 125.956 45.9025 122.73 47.1291 119.505C47.9342 119.509 48.7412 119.496 49.5464 119.521C48.5224 122.149 47.5182 124.785 46.505 127.418C46.1123 128.411 45.7213 129.407 45.4093 130.429C43.8958 134.423 42.3231 138.392 40.8347 142.395C40.7863 142.374 40.6894 142.329 40.641 142.307C40.1963 143.593 39.6852 144.856 39.1849 146.122C39.1077 146.294 39.2064 146.481 39.1723 146.66C39.0199 146.789 38.8728 146.938 38.8101 147.135C38.0049 149.196 37.2266 151.266 36.4232 153.327C35.8314 155.159 35.1123 156.949 34.3896 158.734C33.753 156.948 33.0321 155.192 32.4816 153.377C30.6901 148.527 28.904 143.676 27.1107 138.826C25.6618 142.709 24.2002 146.587 22.7513 150.468C21.6861 153.215 20.8056 156.026 19.7063 158.759C19.0876 157.061 18.356 155.402 17.8234 153.671C15.8974 148.554 13.8889 143.466 11.9916 138.337L11.7998 138.412C10.8655 135.883 9.87736 133.372 8.91975 130.851C7.83661 127.592 6.47014 124.434 5.32065 121.2C5.21843 120.621 5.07676 120.05 4.84184 119.51Z" fill="#C2BBB6"/>
<path d="M54.8312 119.512C56.2694 119.5 57.7094 119.51 59.1476 119.503C59.1458 132.251 59.1602 144.998 59.1404 157.746C57.704 157.747 56.2676 157.756 54.8312 157.744C54.8312 144.999 54.833 132.255 54.8312 119.512Z" fill="#C2BBB6"/>
<path d="M96.0335 119.509C103.235 119.503 110.437 119.509 117.639 119.507C117.641 120.203 117.639 120.899 117.637 121.596C111.911 121.6 106.185 121.593 100.459 121.6C100.459 126.81 100.456 132.02 100.459 137.23C105.837 137.226 111.217 137.232 116.595 137.228C116.595 137.886 116.597 138.546 116.595 139.208C111.217 139.206 105.837 139.208 100.459 139.206C100.456 144.682 100.454 150.157 100.461 155.635C106.379 155.626 112.297 155.629 118.214 155.635C118.211 156.341 118.214 157.046 118.198 157.755C110.812 157.749 103.425 157.755 96.0388 157.751C96.0209 145.005 96.0299 132.257 96.0335 119.51V119.509Z" fill="#C2BBB6"/>
<path d="M123.933 10.9044C128.755 10.9151 133.576 10.9116 138.398 10.9044C138.4 11.4496 138.4 11.9966 138.4 12.5418C133.857 12.5382 129.317 12.5275 124.776 12.549C124.769 14.3299 124.785 16.1109 124.764 17.8918C124.487 17.8936 124.211 17.8972 123.939 17.899C123.931 15.5674 123.935 13.2341 123.933 10.9026V10.9044Z" fill="#99714E"/>
<path d="M13.1824 17.2031C16.4677 17.1977 19.7529 17.2102 23.04 17.1977C24.9409 22.0168 26.7503 26.8735 28.6207 31.7052C30.0571 35.8212 31.7051 39.8619 33.2384 43.9439C34.8129 48.0976 36.4268 52.2369 38.0031 56.3907C38.6845 58.5231 39.5776 60.5784 40.3379 62.684C40.5298 63.2292 40.9046 63.6829 41.1126 64.221C43.2682 69.8382 45.4219 75.4571 47.5684 81.0779C48.2104 83.1512 49.0963 85.1366 49.8333 87.1758C50.4466 85.506 51.0617 83.8381 51.6714 82.1684C52.1843 80.4664 52.8586 78.8217 53.4647 77.1538C55.8498 70.6417 58.2653 64.1403 60.6504 57.6299C60.9355 56.4624 61.5111 55.3845 61.7927 54.2205C61.538 53.2951 61.131 52.4199 60.81 51.5178C58.6168 45.6351 56.4218 39.7525 54.2304 33.8681C53.5544 31.7357 52.708 29.6624 51.944 27.5604C50.6439 24.1116 49.3832 20.6466 48.067 17.2031C51.3056 17.2031 54.5443 17.1995 57.7829 17.2049C59.4955 21.9379 61.2296 26.6637 62.9565 31.3913C64.9991 37.3636 67.2693 43.257 69.3926 49.2024C69.6114 49.8498 70.0525 50.3932 70.2623 51.0461C71.0693 53.383 72.0179 55.6697 72.7406 58.0371C75.4736 65.48 78.1796 72.9337 80.909 80.3803C81.6335 82.701 82.5481 84.9572 83.3479 87.2529C84.7233 83.9654 85.8064 80.5686 87.1191 77.2578C88.5788 73.4036 90.0422 69.5494 91.518 65.7006C92.6657 62.5566 93.9712 59.4683 95.0239 56.2902C96.1769 53.261 97.3426 50.2372 98.4813 47.2026C98.727 46.6233 99.1215 46.1194 99.3206 45.5204C100.997 40.9452 102.85 36.4364 104.444 31.8325C106.289 27.0367 108.082 22.2212 109.948 17.4326C109.982 20.3596 109.94 23.2866 109.956 26.2135C109.935 26.9865 110.068 27.7918 109.79 28.5325C109.295 29.8955 108.76 31.2424 108.289 32.6127C107.781 34.3183 107.075 35.9539 106.492 37.6326C105.068 41.5227 103.633 45.4092 102.199 49.2938C101.164 52.1455 100.047 54.972 99.0982 57.8505C98.2912 59.2046 97.9236 60.7542 97.3318 62.2033C95.092 68.2653 92.8612 74.3326 90.6232 80.3946C89.5239 83.7179 88.2471 86.9803 87.0546 90.2713C85.6684 94.0358 84.2822 97.7986 82.8906 101.561C82.3113 103.201 81.6568 104.811 81.1511 106.475C81.0991 106.402 80.9969 106.251 80.9449 106.176C78.2819 98.776 75.5041 91.4048 72.7962 84.0156C71.9659 81.7792 71.2468 79.505 70.3825 77.2793C70.126 76.2947 69.4392 75.5038 69.1756 74.5228C67.4989 69.9583 65.8204 65.3939 64.1204 60.8367C62.6319 64.7572 61.1758 68.6921 59.6946 72.6181C58.4966 75.9001 57.1804 79.141 56.0811 82.4589C53.0881 90.3915 50.1328 98.342 47.1434 106.275C46.6574 104.603 45.9509 103.012 45.343 101.384C43.9604 97.7035 42.5239 94.043 41.1431 90.3628C40.9118 89.7351 40.4742 89.2096 40.2626 88.5747C39.314 85.9436 38.1986 83.3736 37.3378 80.7121C34.4865 73.2852 31.6585 65.8495 28.8036 58.4245C27.3833 54.3012 25.7102 50.2713 24.1985 46.1804C22.9503 42.9359 21.7148 39.6862 20.4738 36.44C20.004 35.1738 19.4588 33.9345 19.0769 32.6378C17.1276 27.4869 15.137 22.3522 13.1824 17.2031Z" fill="#99714E"/>
<path d="M123.93 23.3332C128.754 23.3458 133.579 23.3045 138.403 23.3529C138.4 26.0754 138.403 28.7979 138.403 31.5204C138.131 31.5222 137.862 31.524 137.594 31.5276C137.532 29.4023 137.578 27.2771 137.568 25.1518C135.615 25.1536 133.662 25.1446 131.709 25.1608C131.73 27.1605 131.714 29.1602 131.718 31.16C131.458 31.1617 131.2 31.1617 130.943 31.1617C130.904 29.1602 130.936 27.1587 130.927 25.1554C128.876 25.1536 126.824 25.141 124.774 25.1625C124.772 27.356 124.783 29.5476 124.767 31.7392C124.487 31.7357 124.208 31.7339 123.933 31.7321C123.937 28.9324 123.94 26.1328 123.93 23.3332Z" fill="#99714E"/>
<path d="M125.927 39.1391C127.391 37.8657 129.412 37.4999 131.296 37.4532C132.986 37.5501 134.763 37.9052 136.122 38.9759C137.499 40.0323 138.471 41.6572 138.611 43.4022C138.765 44.8962 138.654 46.5103 137.793 47.7909C137.277 48.632 136.436 49.1898 135.586 49.6489C135.462 49.3889 135.342 49.1288 135.224 48.867C136.181 48.3594 137.143 47.6922 137.603 46.6699C138.218 45.3266 138.07 43.7555 137.557 42.4068C136.902 40.9272 135.464 39.8816 133.898 39.5534C131.7 38.9634 129.322 39.184 127.229 40.0592C125.791 40.7299 124.609 42.0607 124.362 43.6587C123.942 45.3356 124.523 47.2313 125.886 48.3164C127.217 48.311 128.547 48.3235 129.878 48.311C129.88 48.8114 129.878 49.3117 129.874 49.8139C128.515 49.8193 127.156 49.8229 125.796 49.8139C124.243 48.241 123.336 45.9938 123.623 43.7735C123.731 41.9997 124.564 40.2852 125.927 39.1391Z" fill="#99714E"/>
<path d="M107.442 58.168C108.255 55.6715 109.187 53.2144 110.123 50.7627C110.175 52.0271 110.109 53.2915 110.082 54.5559C110.093 59.2154 110.08 63.8748 110.089 68.5361C109.976 73.617 110.059 78.7016 110.034 83.7861C109.973 91.333 110.059 98.8818 109.953 106.427C103.181 106.427 96.4101 106.429 89.6404 106.429C90.3362 104.017 91.3315 101.703 92.1636 99.3356C94.3621 93.3453 96.5786 87.3605 98.7808 81.372C99.1071 80.886 99.2918 80.3282 99.4766 79.7776C102.132 72.575 104.792 65.3724 107.442 58.168Z" fill="#99714E"/>
<path d="M123.921 54.8141C125.884 55.6302 127.886 56.3422 129.873 57.1008C130.138 57.5295 130.683 57.6048 131.112 57.8021C133.64 58.8423 136.239 59.6996 138.744 60.799C137.55 61.2922 136.301 61.6832 135.218 62.4006C132.869 63.2292 130.574 64.2066 128.26 65.132C126.786 65.5876 125.382 66.2279 123.953 66.8018C123.931 66.2512 123.931 65.7006 123.955 65.15C125.454 64.5474 126.941 63.9071 128.476 63.3942C128.452 61.633 128.486 59.8718 128.468 58.1106C128.501 57.4631 127.64 57.5402 127.217 57.3806L127.292 57.1528C126.171 56.7565 125.083 56.2794 123.969 55.8669C123.949 55.5154 123.931 55.1639 123.921 54.8141ZM129.177 58.0281C129.145 59.7408 129.166 61.4536 129.162 63.1682C129.769 62.9279 130.377 62.6947 130.988 62.4687C131.282 62.3432 131.635 62.2571 131.795 61.9468C133.07 61.4482 134.376 61.0322 135.649 60.5264C133.465 59.7642 131.309 58.9266 129.177 58.0281Z" fill="#99714E"/>
<path d="M123.926 72.1733C128.752 72.1643 133.577 72.1625 138.403 72.1769C138.401 72.7167 138.401 73.2583 138.401 73.8C133.857 73.8018 129.315 73.8018 124.771 73.8C124.774 75.5773 124.78 77.3547 124.769 79.132C124.495 79.1356 124.224 79.141 123.953 79.1481C123.906 76.8238 123.953 74.4976 123.926 72.1733Z" fill="#99714E"/>
<path d="M124.5 95.8096C126.105 93.3059 130.188 93.1158 132.109 95.3433C132.668 95.9441 133.124 96.6328 133.574 97.3179C134.384 96.9 135.145 96.3961 135.876 95.8508C136.666 96.0481 137.528 96.2562 138.075 96.9108C138.853 97.8057 138.791 99.1508 138.358 100.191C137.828 101.271 136.362 101.653 135.319 101.104C134.523 100.663 133.771 100.096 133.328 99.2836C131.929 100.613 130.242 101.568 128.7 102.716C128.232 103.079 127.708 103.351 127.172 103.595C128.503 104.088 129.962 103.991 131.268 103.466C131.261 103.703 131.255 103.941 131.25 104.182C129.808 104.912 128.06 104.752 126.607 104.135C125.669 104.729 124.737 105.353 123.976 106.171C123.935 105.514 123.922 104.86 123.928 104.205C124.331 103.93 124.737 103.658 125.147 103.391C124.48 102.612 123.885 101.728 123.718 100.697C123.433 99.0504 123.546 97.2318 124.5 95.8096ZM126.058 96.1127C124.844 96.8695 124.26 98.3725 124.392 99.7642C124.417 100.939 124.997 102.011 125.786 102.851C127.086 101.85 128.598 101.165 129.847 100.096C130.631 99.2943 131.621 98.7509 132.518 98.0927C131.908 97.1852 131.262 96.2059 130.208 95.7809C128.879 95.2572 127.278 95.3523 126.058 96.1127ZM136.911 96.9449C136.102 97.4829 135.313 98.0496 134.508 98.5931C134.863 99.1401 135.353 99.5759 135.747 100.092C136.289 100.37 136.902 100.376 137.446 100.1C137.772 99.5293 138.253 98.9285 138.055 98.2272C137.967 97.5959 137.39 97.2641 136.911 96.9449Z" fill="#99714E"/>
<path d="M137.587 119.51C137.856 119.512 138.129 119.518 138.401 119.525C138.401 122.362 138.405 125.201 138.401 128.04C138.127 128.04 137.851 128.042 137.58 128.046C137.548 126.896 137.573 125.748 137.557 124.599C133.016 124.615 128.477 124.608 123.937 124.602C123.928 124.05 123.937 123.499 123.969 122.95C128.501 122.965 133.032 122.941 137.566 122.961C137.573 121.81 137.548 120.66 137.589 119.51H137.587Z" fill="#99714E"/>
<path d="M123.937 130.506C126.306 131.496 128.734 132.325 131.108 133.302C133.624 134.339 136.212 135.189 138.703 136.294C137.446 136.853 136.151 137.322 134.896 137.876C134.524 138.34 133.87 138.335 133.366 138.577C131.949 139.187 130.486 139.693 129.082 140.331C129.062 140.413 129.021 140.577 129.001 140.657C129.001 140.582 129.005 140.43 129.005 140.354C127.292 140.959 125.599 141.619 123.922 142.316C123.924 141.755 123.937 141.194 123.967 140.636C125.475 140.082 126.93 139.395 128.465 138.918C128.476 137.029 128.467 135.141 128.468 133.252C126.924 132.764 125.434 132.129 123.933 131.532C123.933 131.188 123.933 130.845 123.937 130.506ZM129.17 133.557C129.15 135.261 129.162 136.966 129.166 138.674C129.729 138.45 130.294 138.229 130.866 138.03L130.819 137.833C132.419 137.216 134.04 136.654 135.643 136.046C133.465 135.27 131.316 134.416 129.17 133.557Z" fill="#99714E"/>
<path d="M123.931 145.948C125.063 146.741 126.152 147.596 127.278 148.396C128.58 149.132 129.713 150.113 130.934 150.972C131.867 150.317 132.806 149.673 133.744 149.029C135.378 148.138 136.82 146.951 138.389 145.955C138.409 146.576 138.41 147.196 138.378 147.817C137.019 148.662 135.776 149.679 134.415 150.516C133.658 150.895 132.988 151.411 132.295 151.892C132.95 152.496 133.689 153.004 134.472 153.429C135.01 153.719 135.355 154.248 135.851 154.596C136.701 155.224 137.564 155.836 138.416 156.462C138.405 156.874 138.398 157.29 138.383 157.706C137.691 157.297 137.216 156.625 136.538 156.2C135.701 155.653 134.953 154.966 134.056 154.514C133.633 154.309 133.386 153.886 133.014 153.617C132.485 153.233 131.942 152.875 131.418 152.487C130.642 153.084 129.754 153.544 129.091 154.277C127.853 155.246 126.349 155.854 125.212 156.962C124.846 157.351 124.385 157.629 123.939 157.914C123.94 157.249 123.876 156.578 123.978 155.92C124.656 155.316 125.47 154.889 126.173 154.318C126.53 153.963 126.869 153.578 127.328 153.353C128.329 152.826 129.234 152.143 130.142 151.474C129.214 150.841 128.355 150.109 127.367 149.569C126.209 148.773 125.11 147.894 123.958 147.089C123.944 146.707 123.935 146.327 123.931 145.948Z" fill="#99714E"/>
</svg>
